<?xml version="1.0" encoding="UTF-8"?>
<svg width="752pt" height="752pt" version="1.1" viewBox="0 0 752 752" xmlns="http://www.w3.org/2000/svg">
 <defs>
  <clipPath id="a">
   <path d="m139.21 139.21h473.58v473.58h-473.58z"/>
  </clipPath>
 </defs>
 <path d="m375.45 375.95c0.17969 0.23438 0.375 0.43359 0.55469 0.66797 0.17578-0.23438 0.375-0.43359 0.55078-0.66797-0.19531 0-0.375 0.058593-0.55078 0.058593-0.19922 0-0.35547-0.058593-0.55469-0.058593" fill-rule="evenodd"/>
 <g clip-path="url(#a)">
  <path d="m454.93 533.86c-32.379 0-60.934-15.902-78.93-40.078-17.996 24.176-46.547 40.078-78.93 40.078-54.402 0-98.66-44.258-98.66-98.664 0-54.402 44.258-98.66 98.66-98.66 0.19922 0 0.35547 0.058594 0.55469 0.058594-12.551-16.555-20.285-36.941-20.285-59.258 0-54.402 44.258-98.66 98.66-98.66s98.664 44.258 98.664 98.66c0 22.316-7.7344 42.703-20.285 59.258 0.19922 0 0.35547-0.058594 0.55078-0.058594 54.406 0 98.664 44.258 98.664 98.66 0 54.406-44.258 98.664-98.664 98.664m-78.93-394.65c-130.57 0-236.79 106.22-236.79 236.79 0 130.57 106.22 236.79 236.79 236.79s236.79-106.22 236.79-236.79c0-130.57-106.22-236.79-236.79-236.79" fill-rule="evenodd"/>
 </g>
 <path d="m297.07 376c-32.637 0-59.195 26.559-59.195 59.195 0 32.641 26.559 59.199 59.195 59.199 32.637 0 59.199-26.559 59.199-59.199 0-32.637-26.562-59.195-59.199-59.195" fill-rule="evenodd"/>
 <path d="m376 336.54c32.641 0 59.199-26.562 59.199-59.199 0-32.637-26.559-59.195-59.199-59.195-32.637 0-59.195 26.559-59.195 59.195 0 32.637 26.559 59.199 59.195 59.199" fill-rule="evenodd"/>
 <path d="m454.93 376c-32.637 0-59.195 26.559-59.195 59.195 0 32.641 26.559 59.199 59.195 59.199 32.641 0 59.199-26.559 59.199-59.199 0-32.637-26.559-59.195-59.199-59.195" fill-rule="evenodd"/>
</svg>
