<?xml version="1.0" encoding="UTF-8"?>
<svg width="752pt" height="752pt" version="1.1" viewBox="0 0 752 752" xmlns="http://www.w3.org/2000/svg" fill="#fdc03d">
 <defs>
  <clipPath id="a">
   <path d="m139.21 139.21h473.58v473.58h-473.58z"/>
  </clipPath>
 </defs>
 <path d="m285.24 423.15c-14.352 17.934-22.535 41.082-23.918 67.531 26.453-1.3828 49.594-9.5664 67.527-23.914-0.69531-19.133 3.3789-37.855 11.973-55.586-17.734 8.5977-36.48 12.672-55.582 11.969" fill-rule="evenodd"/>
 <path d="m289.43 328.77c17.684 0 34.961 4.082 51.395 12.047-8.5977-17.73-12.66-36.453-11.969-55.582-17.93-14.352-41.074-22.535-67.531-23.918 1.3828 26.457 9.5664 49.602 23.918 67.531 1.3945-0.054687 2.793-0.078125 4.1875-0.078125" fill-rule="evenodd"/>
 <path d="m291.68 407.31c1.6328-0.042969 3.2773-0.12109 4.9102-0.24609 1.7852-0.13281 3.5664-0.34766 5.3438-0.57812 1.9258-0.25 3.8516-0.50391 5.7695-0.86719 1.3164-0.25391 2.6211-0.58984 3.9297-0.89844 7.9648-1.8633 15.859-4.707 23.594-8.5664 0.8125-0.40234 1.6328-0.75 2.4375-1.1758 2.0156-1.0625 3.9883-2.2812 5.9688-3.4805 1.4297-0.85938 2.8555-1.7031 4.2695-2.6367 1.6875-1.1133 3.3555-2.3203 5.0273-3.5352 1.7227-1.2539 3.4258-2.5508 5.1133-3.9062 1.4297-1.1445 2.8516-2.3203 4.2578-3.543 0.68359-0.60156 1.3555-1.2578 2.043-1.8711-0.69531-0.625-1.375-1.2969-2.0664-1.9023-1.3828-1.1914-2.7734-2.3438-4.1602-3.4648-1.7617-1.4141-3.5391-2.7539-5.3281-4.0586-1.5781-1.1445-3.1602-2.2891-4.7539-3.3477-1.5938-1.0469-3.2031-2.0039-4.8047-2.9648-1.793-1.0664-3.5781-2.1719-5.3828-3.1367-1.3281-0.69922-2.6758-1.2852-4.0195-1.9336-4.0625-1.9648-8.168-3.6523-12.305-5.0664-1.1289-0.38672-2.2422-0.84375-3.3711-1.1914-1.8555-0.55859-3.7227-0.96094-5.5859-1.4219-1.7227-0.41016-3.4336-0.85156-5.1641-1.1758-1.6719-0.31641-3.3555-0.53516-5.0352-0.76562-2.0117-0.26562-4.0234-0.50391-6.0391-0.64453-1.5078-0.11328-3.0078-0.18359-4.5039-0.23047-2.2891-0.054688-4.5859-0.015625-6.8906 0.085937-24.645 1.0742-49.145 11.398-71.125 31.219 21.98 19.812 46.48 30.133 71.117 31.215 2.2539 0.10547 4.5039 0.14453 6.7539 0.089844" fill-rule="evenodd"/>
 <path d="m466.77 328.85c14.348-17.934 22.535-41.074 23.914-67.531-26.449 1.3789-49.59 9.5664-67.531 23.922 0.70312 19.133-3.3711 37.848-11.965 55.582 17.734-8.6016 36.434-12.676 55.582-11.973" fill-rule="evenodd"/>
 <path d="m344.7 291.73c0.042969 1.582 0.12109 3.1523 0.23828 4.7305 0.14062 1.9023 0.36328 3.7969 0.60938 5.6914 0.24219 1.7969 0.48047 3.5977 0.82031 5.3906 0.29297 1.5391 0.6875 3.0781 1.0508 4.6094 0.48828 2.0352 0.92969 4.0781 1.5547 6.1016 0.16406 0.55859 0.40234 1.1055 0.58203 1.6562 1.5703 4.8711 3.5664 9.6914 5.8945 14.461 0.55469 1.1367 1.043 2.2812 1.6445 3.4102 0.99219 1.8789 2.1445 3.7305 3.2578 5.5859 0.93359 1.5469 1.8477 3.0938 2.8594 4.6172 1.0742 1.6289 2.2344 3.2383 3.4023 4.8477 1.293 1.7695 2.6094 3.5195 4.0156 5.2578 1.1211 1.4023 2.2812 2.8008 3.4805 4.1914 0.60938 0.69531 1.2734 1.3633 1.8945 2.0586 0.625-0.69531 1.2969-1.3711 1.8945-2.0664 1.1992-1.3828 2.3516-2.7734 3.4727-4.168 1.4062-1.7539 2.7383-3.5117 4.0352-5.2891 1.1602-1.6016 2.3203-3.1953 3.3867-4.8164 1.0234-1.5391 1.9414-3.1016 2.8789-4.6641 1.1055-1.8477 2.25-3.6836 3.2383-5.5469 0.61328-1.1523 1.1094-2.3281 1.6875-3.4961 2.2812-4.6914 4.2383-9.4258 5.793-14.207 0.20703-0.61719 0.46484-1.2266 0.65625-1.8398 0.60547-2.0078 1.0508-4.0273 1.5312-6.0391 0.37109-1.5625 0.77344-3.1172 1.0664-4.6875 0.33594-1.7695 0.56641-3.5469 0.8125-5.3203 0.25-1.9258 0.47266-3.8516 0.61328-5.7852 0.12109-1.5391 0.19141-3.0859 0.23828-4.6328 0.054687-2.2969 0.015625-4.6016-0.085938-6.9062-1.0977-24.621-11.422-49.105-31.219-71.062-19.828 21.988-30.152 46.504-31.215 71.156-0.10547 2.2578-0.14453 4.5156-0.089843 6.7617" fill-rule="evenodd"/>
 <path d="m411.19 411.19c8.5938 17.73 12.66 36.441 11.965 55.582 17.941 14.344 41.082 22.535 67.531 23.918-1.3789-26.449-9.5742-49.594-23.914-67.535-19.141 0.67969-37.855-3.375-55.582-11.965" fill-rule="evenodd"/>
 <g clip-path="url(#a)">
  <path d="m484.54 420.85c14.477 21.438 22.141 48.059 22.141 77.941v7.8945h-7.8945c-29.883 0-56.504-7.6641-77.941-22.141-4.8086 24.934-17.824 49.246-39.262 70.684l-5.5781 5.5781-5.582-5.5781c-21.445-21.438-34.461-45.75-39.27-70.691-21.438 14.484-48.059 22.148-77.934 22.148h-7.8945v-7.8945c0-29.883 7.6562-56.504 22.133-77.941-24.941-4.8086-49.242-17.824-70.68-39.27l-5.582-5.5781 5.582-5.582c21.438-21.438 45.738-34.461 70.68-39.27-14.477-21.43-22.133-48.043-22.133-77.934v-7.8945h7.8945c29.883 0 56.504 7.6641 77.934 22.141 4.8086-24.941 17.824-49.242 39.27-70.688l5.582-5.582 5.5781 5.582c21.438 21.445 34.453 45.746 39.262 70.688 21.438-14.477 48.059-22.141 77.941-22.141h7.8945v7.8945c0 29.883-7.6641 56.504-22.141 77.934 24.941 4.8086 49.246 17.832 70.691 39.27l5.5781 5.582-5.5781 5.5781c-21.445 21.445-45.75 34.461-70.691 39.27m-108.54-281.64c-130.57 0-236.79 106.23-236.79 236.79s106.23 236.79 236.79 236.79c130.57 0 236.79-106.22 236.79-236.79s-106.22-236.79-236.79-236.79" fill-rule="evenodd"/>
 </g>
 <path d="m407.3 460.22c-0.039063-1.5469-0.11719-3.0859-0.23047-4.6328-0.14062-1.9336-0.37109-3.8594-0.62109-5.7852-0.23828-1.7734-0.46875-3.5508-0.80469-5.3203-0.29297-1.5703-0.70313-3.125-1.0742-4.6797-0.48047-2.0195-0.92578-4.0391-1.5312-6.0469-0.19141-0.61328-0.44922-1.2227-0.64844-1.8359-1.5547-4.7852-3.5117-9.5195-5.8008-14.211-0.57031-1.1602-1.0742-2.3359-1.6875-3.4961-0.98828-1.8633-2.125-3.6992-3.2305-5.5469-0.9375-1.5547-1.8633-3.1172-2.8789-4.6562-1.0742-1.6289-2.2344-3.2227-3.3945-4.8164-1.2969-1.7773-2.6211-3.543-4.0273-5.2891-1.1211-1.4023-2.2812-2.793-3.4727-4.168-0.60547-0.69922-1.2773-1.3789-1.9023-2.0664-0.61328 0.6875-1.2852 1.3672-1.8867 2.0586-1.1992 1.3828-2.3594 2.7812-3.4883 4.1836-1.3984 1.7383-2.7227 3.4961-4.0078 5.2578-1.168 1.6094-2.3359 3.2188-3.4102 4.8477-1.0117 1.5234-1.9258 3.0781-2.8594 4.6172-1.1133 1.8633-2.2578 3.707-3.25 5.5938-0.60156 1.1211-1.0898 2.2734-1.6523 3.4023-2.3281 4.7773-4.3164 9.5898-5.8945 14.461-0.17188 0.55078-0.41016 1.0977-0.58203 1.6562-0.61719 2.0312-1.0586 4.0664-1.5469 6.1016-0.36328 1.5391-0.76562 3.0703-1.0586 4.6172-0.33984 1.793-0.57812 3.5859-0.8125 5.3828-0.25391 1.8945-0.47656 3.7891-0.60938 5.6992-0.11719 1.5703-0.19531 3.1523-0.24609 4.7227-0.046874 2.2461-0.015624 4.5039 0.089844 6.7617 1.0625 24.652 11.395 49.176 31.215 71.164 19.805-21.965 30.129-46.441 31.219-71.066 0.10156-2.3047 0.14062-4.6133 0.085938-6.9102" fill-rule="evenodd"/>
 <path d="m460.32 344.7c-1.6172 0.039063-3.2305 0.12109-4.8477 0.24609-1.8398 0.13281-3.6602 0.34766-5.4844 0.58203-1.8789 0.25391-3.75 0.5-5.6133 0.85547-1.4141 0.26562-2.8008 0.62891-4.1992 0.95312-7.8281 1.8477-15.582 4.6406-23.172 8.4141-0.89453 0.44922-1.8008 0.82812-2.6836 1.293-1.9922 1.0508-3.9492 2.2578-5.9062 3.4414-1.4453 0.87891-2.8867 1.7227-4.3086 2.668-1.6875 1.1133-3.3633 2.3203-5.0273 3.5391-1.7148 1.2539-3.418 2.5312-5.1016 3.8906-1.4336 1.1445-2.8633 2.3359-4.2773 3.5586-0.68359 0.59375-1.3477 1.2539-2.0273 1.8633 0.6875 0.61719 1.3594 1.2852 2.0508 1.8867 1.3984 1.207 2.8047 2.375 4.2227 3.5117 1.707 1.3828 3.4336 2.6758 5.1719 3.9453 1.6484 1.1992 3.3008 2.3945 4.9648 3.4961 1.4453 0.95703 2.9102 1.8164 4.3711 2.7031 1.9414 1.1758 3.8828 2.375 5.8594 3.4141 0.89844 0.47656 1.8125 0.86328 2.7227 1.3125 7.5938 3.7734 15.344 6.5586 23.164 8.4062 1.3906 0.32422 2.7695 0.6875 4.1602 0.94531 1.8789 0.36328 3.7578 0.60938 5.6367 0.85547 1.8242 0.23438 3.6445 0.45703 5.4766 0.58984 1.6094 0.11719 3.2188 0.19922 4.832 0.23828 2.2578 0.054687 4.5234 0.015624 6.793-0.089844 24.637-1.0781 49.129-11.402 71.102-31.215-21.996-19.828-46.52-30.16-71.18-31.219-2.2422-0.10156-4.4727-0.14062-6.6992-0.085938" fill-rule="evenodd"/>
</svg>
