<?xml version="1.0" encoding="UTF-8"?>
<svg width="752pt" height="752pt" version="1.1" viewBox="0 0 752 752" xmlns="http://www.w3.org/2000/svg">
 <defs>
  <clipPath id="a">
   <path d="m139.21 139.21h473.58v473.58h-473.58z"/>
  </clipPath>
 </defs>
 <path d="m340.71 381.81c1.375-2.0234 2.8359-3.9883 4.3164-5.9531 1.3516-1.8086 2.7578-3.5742 4.1914-5.3281 1.1445-1.375 2.2656-2.7617 3.4648-4.1055 2.8672-3.2422 5.8438-6.4062 9-9.4141l1.9727-1.8789c-14.121-59.113-65.535-98.957-126.3-97.48l-3.3359 0.089843-0.082031 3.3359c-1.6016 64.43 40.438 118.32 100.68 130.28 1.5469-2.707 3.332-5.3086 5.0703-7.9375 0.34375-0.53125 0.66797-1.082 1.0234-1.6094" fill-rule="evenodd"/>
 <path d="m406.68 409.01-0.48828-0.94922c-0.55859 0.007812-1.0664 0.03125-1.6406 0.03125-5.1055 0-10.617-0.1875-15.488-0.35547l-5.3594-0.16406h-15.594c-5.4883 0.14063-12.133 0.10156-19.457 0.054688l-4.6016-0.023438c-7.7266 16.203-11.895 33.688-11.895 51.637 0 34.293 14.695 67.176 41.398 92.586l2.4453 2.4453 2.3125-2.3125c26.191-24.918 40.531-57.152 40.531-90.879 0-18.066-4.1836-35.699-11.949-52.102z" fill-rule="evenodd"/>
 <g clip-path="url(#a)">
  <path d="m423.05 406.21c7.5625 17.34 11.578 35.891 11.578 54.863 0 38.102-16.094 74.383-45.297 102.18l-13.332 13.34-13.402-13.41c-29.828-28.406-46.234-65.324-46.234-103.95 0-18.469 3.8594-36.496 11.082-53.363-65.625-15.035-111.05-74.406-109.3-145.18l0.45703-18.359 18.367-0.45703c1.25-0.03125 2.4961-0.046875 3.7422-0.046875 62.262 0 114.97 38.641 134.46 96.719 20.57-59.262 76.059-98.324 140.13-96.672l18.359 0.45703 0.46484 18.359c1.7617 71.582-44.383 131.04-111.08 145.52m-47.051-267c-130.57 0-236.79 106.22-236.79 236.79s106.22 236.79 236.79 236.79 236.79-106.22 236.79-236.79-106.23-236.79-236.79-236.79" fill-rule="evenodd"/>
 </g>
 <path d="m514.93 257.65c-1.1445-0.023438-2.2734-0.039063-3.4023-0.039063-60.012 0-110.57 39.559-125.02 97.699l1.7891 1.6992c3.1562 2.9961 6.1172 6.1562 8.9844 9.3906 1.5156 1.6875 2.9258 3.4336 4.3555 5.1797 0.90625 1.1133 1.8086 2.2383 2.6758 3.3828 4.1758 5.3945 8.0742 10.926 11.422 16.711 61.391-11.336 104.23-65.34 102.62-130.59l-0.078124-3.3477z" fill-rule="evenodd"/>
</svg>
