<?xml version="1.0" encoding="UTF-8"?>
<svg width="752pt" height="752pt" version="1.1" viewBox="0 0 752 752" xmlns="http://www.w3.org/2000/svg">
 <defs>
  <clipPath id="a">
   <path d="m139.21 139.21h473.58v473.58h-473.58z"/>
  </clipPath>
 </defs>
 <path d="m475.39 276.62c-24.328 13.41-60.207 28.344-99.391 28.344-39.18 0-75.062-14.934-99.387-28.344 13.418 24.32 28.352 60.207 28.352 99.383 0 39.18-14.934 75.07-28.352 99.387 24.324-13.41 60.207-28.352 99.387-28.352 39.184 0 75.062 14.941 99.391 28.352-13.41-24.316-28.352-60.207-28.352-99.387 0-39.176 14.941-75.062 28.352-99.383" fill-rule="evenodd"/>
 <path d="m289.18 376c0-53.27-31.152-101.34-41.926-116.38-27.887 30.816-44.898 71.648-44.898 116.38 0 44.73 17.012 85.562 44.891 116.38 10.773-15.074 41.934-63.238 41.934-116.38" fill-rule="evenodd"/>
 <path d="m504.76 259.62c-10.777 15.078-41.938 63.238-41.938 116.38 0 53.27 31.152 101.34 41.938 116.38 27.875-30.82 44.887-71.652 44.887-116.38 0-44.738-17.012-85.566-44.887-116.38" fill-rule="evenodd"/>
 <path d="m376 289.18c53.27 0 101.34-31.156 116.38-41.93-30.816-27.887-71.645-44.895-116.38-44.895-44.73 0-85.562 17.008-116.38 44.887 15.074 10.781 63.23 41.938 116.38 41.938" fill-rule="evenodd"/>
 <path d="m376 462.82c-53.27 0-101.34 31.152-116.38 41.93 30.812 27.883 71.645 44.895 116.38 44.895 44.73 0 85.559-17.012 116.38-44.887-15.078-10.785-63.23-41.938-116.38-41.938" fill-rule="evenodd"/>
 <g clip-path="url(#a)">
  <path d="m376 565.43c-104.45 0-189.43-84.984-189.43-189.43 0-104.45 84.984-189.43 189.43-189.43 104.45 0 189.43 84.984 189.43 189.43 0 104.45-84.98 189.43-189.43 189.43m0-426.22c-130.57 0-236.79 106.22-236.79 236.79s106.23 236.79 236.79 236.79 236.79-106.23 236.79-236.79-106.22-236.79-236.79-236.79" fill-rule="evenodd"/>
 </g>
</svg>
