<?xml version="1.0" encoding="UTF-8"?>
<svg width="752pt" height="752pt" version="1.1" viewBox="0 0 752 752" xmlns="http://www.w3.org/2000/svg">
 <defs>
  <clipPath id="a">
   <path d="m139.21 139.21h473.58v473.58h-473.58z"/>
  </clipPath>
 </defs>
 <path d="m376 253.72-42.07 63.082h84.141z" fill-rule="evenodd"/>
 <path d="m333.94 356.27 42.07 63.086 42.051-63.086z" fill-rule="evenodd"/>
 <path d="m255 435.2h84.141l-42.07-63.082z" fill-rule="evenodd"/>
 <g clip-path="url(#a)">
  <path d="m533.86 474.67h-315.72c-7.2812 0-13.969-4.0078-17.402-10.422-3.4336-6.4297-3.0391-14.207 0.98438-20.266l157.86-236.79c7.3242-10.973 25.516-10.973 32.836 0l157.86 236.79c4.0273 6.0586 4.4219 13.836 0.98828 20.266-3.4336 6.4141-10.121 10.422-17.402 10.422m-157.86-335.45c-130.57 0-236.79 106.22-236.79 236.79 0 130.57 106.22 236.79 236.79 236.79s236.79-106.22 236.79-236.79c0-130.57-106.22-236.79-236.79-236.79" fill-rule="evenodd"/>
 </g>
 <path d="m412.87 435.2h84.137l-42.07-63.082z" fill-rule="evenodd"/>
</svg>
