<?xml version="1.0" encoding="UTF-8"?>
<svg width="752pt" height="752pt" version="1.1" viewBox="0 0 752 752" xmlns="http://www.w3.org/2000/svg" fill="#fdc03d">
 <defs>
  <clipPath id="a">
   <path d="m139.21 139.21h473.58v473.58h-473.58z"/>
  </clipPath>
 </defs>
 <path d="m435.2 297.07c-21.766 0-39.465 17.699-39.465 39.465 0 10.891-8.8203 19.73-19.734 19.73-10.91 0-19.73-8.8398-19.73-19.73 0-21.766-17.699-39.465-39.465-39.465-21.766 0-39.465 17.699-39.465 39.465 0 21.766 17.699 39.465 39.465 39.465 3.6484 0 7.6367-0.73047 12.156-2.1914 2.0312-0.67188 4.082-0.98438 6.1367-0.98438 6.7852 0 13.277 3.5117 16.91 9.5703 4.7344 7.9102 3.3945 18.035-3.2578 24.406-7.8711 7.5391-12.215 17.641-12.215 28.395 0 21.766 17.703 39.469 39.465 39.469 21.766 0 39.465-17.703 39.465-39.469 0-10.754-4.3398-20.855-12.211-28.395-6.6523-6.3711-7.9922-16.496-3.2578-24.406 4.7148-7.9141 14.285-11.484 23.047-8.5859 4.5195 1.4609 8.5039 2.1914 12.156 2.1914 21.766 0 39.465-17.699 39.465-39.465 0-21.766-17.699-39.465-39.465-39.465" fill-rule="evenodd"/>
 <g clip-path="url(#a)">
  <path d="m451.96 413.68c1.9727 6.9062 2.957 14.129 2.957 21.527 0 43.512-35.398 78.934-78.93 78.934-43.527 0-78.93-35.422-78.93-78.934 0-7.3984 1.0078-14.621 2.9805-21.527-35.5-7.7148-62.176-39.367-62.176-77.133 0-43.531 35.398-78.93 78.93-78.93 23.559 0 44.734 10.359 59.195 26.777 14.484-16.418 35.656-26.777 59.199-26.777 43.531 0 78.93 35.398 78.93 78.93 0 37.766-26.66 69.418-62.156 77.133m-75.973-274.46c-130.57 0-236.79 106.22-236.79 236.79 0 130.57 106.22 236.79 236.79 236.79 130.59 0 236.79-106.22 236.79-236.79 0-130.57-106.2-236.79-236.79-236.79" fill-rule="evenodd"/>
 </g>
</svg>
