<?xml version="1.0" encoding="UTF-8"?>
<svg width="752pt" height="752pt" version="1.1" viewBox="0 0 752 752" xmlns="http://www.w3.org/2000/svg">
 <defs>
  <clipPath id="a">
   <path d="m139.21 139.21h473.58v473.58h-473.58z"/>
  </clipPath>
 </defs>
 <path d="m431.55 353.45c-2.8984 0.63281-6.8633 1.6172-10.93 3.0586-7.2617 2.5664-15.254 0.67188-20.641-4.7773-5.3672-5.4453-7.0859-13.516-4.4219-20.699 1.5-4.0234 2.4297-7.7734 2.9805-10.516 0.39453-1.8555 0.53516-3.5117 0.45312-4.9922-1.1445-21.234-13.355-39.148-23.066-50.199-9.6484 10.992-21.785 28.789-23.008 49.961-0.078125 1.4609 0.078125 3.1797 0.49219 5.1328 0.61328 2.918 1.582 6.8281 3.0195 10.852 2.5664 7.2422 0.71094 15.293-4.7344 20.68-5.4648 5.3867-13.559 7.1055-20.719 4.4414-4.0078-1.4805-7.7344-2.4102-10.461-2.9414-1.832-0.375-3.5508-0.49219-4.8906-0.43359-21.332 1.125-39.27 13.32-50.32 23.047 10.617 9.3516 27.668 21.016 47.953 22.871 2.6406 0.27344 5.2461 0.058594 7.8516-0.55469 2.8008-0.60938 6.4336-1.5586 10.145-2.8789 2.1484-0.75 4.3789-1.125 6.5898-1.125 5.207 0 10.281 2.0508 14.066 5.8984 5.3477 5.4453 7.0859 13.52 4.4219 20.699-1.4805 4.0273-2.3867 7.7773-2.9219 10.52-0.35547 1.7344-0.47266 3.3555-0.39453 4.7148 1.0664 21.41 13.301 39.406 23.027 50.477 9.6523-10.953 21.746-28.691 23.031-49.805 0.078125-1.4219-0.10156-3.2383-0.55469-5.3281-0.62891-2.8398-1.6367-6.8086-3.0781-10.895-2.5469-7.1992-0.67187-15.25 4.7773-20.617 5.4453-5.3672 13.594-7.0859 20.719-4.4219 4.0039 1.4805 7.7539 2.4062 10.496 2.9414 1.8555 0.375 3.3945 0.53125 4.875 0.45312 21.312-1.125 39.285-13.359 50.355-23.066-10.969-9.6484-28.73-21.766-49.883-23.027-1.4414-0.042969-3.1758 0.097656-5.2305 0.53125" fill-rule="evenodd"/>
 <g clip-path="url(#a)">
  <path d="m529.76 387.99c-1.5 1.9531-37.234 47.516-91.242 50.418 0 0.27734-0.019531 0.55078-0.039063 0.82812-3.2773 53.633-48.445 89.031-50.379 90.531-3.5312 2.7266-7.793 4.1055-12.035 4.1055-4.2461 0-8.5078-1.3789-12.039-4.1055-1.9531-1.5-47.574-37.254-50.418-91.301-1.3203-0.039063-2.6406-0.11719-3.9453-0.23828-51.875-4.7344-85.992-48.266-87.414-50.121-5.4648-7.1016-5.4648-16.988 0-24.09 1.5-1.9336 37.234-47.539 91.242-50.418 0.019531-0.21875 0.019531-0.43359 0.039063-0.65234 3.1172-53.672 48.445-89.211 50.379-90.691 7.1016-5.4844 17.008-5.4648 24.074 0 1.9531 1.4805 47.516 37.195 50.434 91.184 0.0625 0.19922 0.47656 0.082031 0.71094 0.10156 53.672 3.1758 89.152 48.441 90.633 50.355 5.4648 7.1055 5.4648 16.992 0 24.094m-153.84-248.77c-130.57 0-236.79 106.22-236.79 236.79 0 130.55 106.22 236.79 236.79 236.79s236.79-106.24 236.79-236.79c0-130.57-106.22-236.79-236.79-236.79" fill-rule="evenodd"/>
 </g>
</svg>
