<?xml version="1.0" encoding="UTF-8"?>
<svg width="752pt" height="752pt" version="1.1" viewBox="0 0 752 752" xmlns="http://www.w3.org/2000/svg" fill="#fdc03d">
 <defs>
  <clipPath id="c">
   <path d="m198 139.21h356v103.79h-356z"/>
  </clipPath>
  <clipPath id="b">
   <path d="m397 258h215.79v354h-215.79z"/>
  </clipPath>
  <clipPath id="a">
   <path d="m139.21 258h215.79v354h-215.79z"/>
  </clipPath>
 </defs>
 <path d="m243.37 274.87c42.363 50.301 101.27 130.61 132.62 219.21 31.57-89.113 90.965-169.82 133.39-220.08-110.3 20.68-205.08 12.016-266.01 0.86719" fill-rule="evenodd"/>
 <g clip-path="url(#c)">
  <path d="m553.04 219.3c-43.414-48.996-106.6-80.074-177.04-80.074-70.699 0-134.08 31.297-177.51 80.586 41.262 11.82 184.73 45.148 354.55-0.51172" fill-rule="evenodd"/>
 </g>
 <g clip-path="url(#b)">
  <path d="m581.52 258.86c-33.07 34.254-183.83 198.75-183.83 351.04 0 0.64844-0.31641 1.1836-0.35547 1.8125 120.59-10.832 215.46-112.36 215.46-235.72 0-42.621-11.484-82.543-31.277-117.13" fill-rule="evenodd"/>
 </g>
 <g clip-path="url(#a)">
  <path d="m354.31 609.9c0-152.55-150.78-316.86-183.81-351.06-19.812 34.594-31.297 74.531-31.297 117.17 0 123.35 94.875 224.88 215.46 235.71-0.039063-0.63281-0.35547-1.1641-0.35547-1.8164" fill-rule="evenodd"/>
 </g>
</svg>
