<?xml version="1.0" encoding="UTF-8"?>
<svg width="752pt" height="752pt" version="1.1" viewBox="0 0 752 752" xmlns="http://www.w3.org/2000/svg">
 <defs>
  <clipPath id="a">
   <path d="m139.21 139.21h473.58v473.58h-473.58z"/>
  </clipPath>
 </defs>
 <g clip-path="url(#a)">
  <path d="m494.4 474.67h-59.199c-10.891 0-19.734-8.8438-19.734-19.734s8.8438-19.734 19.734-19.734h8.8203l-68.02-149.65-68.016 149.65h8.8203c10.891 0 19.73 8.8438 19.73 19.734s-8.8398 19.734-19.73 19.734h-59.199c-10.891 0-19.73-8.8438-19.73-19.734s8.8398-19.734 19.73-19.734h7.0273l93.41-205.49c0.39844-0.86719 1.125-1.4609 1.6406-2.25 0.75-1.2031 1.4609-2.4062 2.4844-3.4336 0.98828-1.0078 2.1719-1.6758 3.3555-2.4258 0.80859-0.53516 1.4023-1.2656 2.3086-1.6797 0.21875-0.097657 0.45312-0.058594 0.67188-0.15625 1.2617-0.53516 2.6055-0.67188 3.9453-0.92969 1.2031-0.21484 2.3672-0.60938 3.5703-0.58984 1.0859 0 2.1523 0.35547 3.2383 0.53125 1.4609 0.25781 2.8984 0.41406 4.2617 0.98828 0.19922 0.097656 0.43359 0.058593 0.65234 0.15625 0.88672 0.39453 1.4805 1.125 2.2695 1.6406 1.1836 0.76953 2.3867 1.4375 3.3906 2.4648 1.0273 1.0273 1.7383 2.2305 2.5078 3.4336 0.49219 0.78906 1.2227 1.3828 1.6172 2.25l93.414 205.49h7.0273c10.891 0 19.73 8.8438 19.73 19.734s-8.8398 19.734-19.73 19.734m-118.4-335.45c-130.57 0-236.79 106.22-236.79 236.79 0 130.57 106.22 236.79 236.79 236.79s236.79-106.22 236.79-236.79c0-130.57-106.22-236.79-236.79-236.79" fill-rule="evenodd"/>
 </g>
</svg>
