<?xml version="1.0" encoding="UTF-8"?>
<svg width="752pt" height="752pt" version="1.1" viewBox="0 0 752 752" xmlns="http://www.w3.org/2000/svg" fill="#fdc03d">
 <defs>
  <clipPath id="a">
   <path d="m139.21 139.21h473.58v473.58h-473.58z"/>
  </clipPath>
 </defs>
 <g clip-path="url(#a)">
  <path d="m518.15 413.85 5.1289 25.633c1.8164 9.0547-2.9023 18.152-11.328 21.902-8.4062 3.8086-18.328 1.1641-23.855-6.2344-0.92578-1.2266-22.555-28.555-68.352-35.422 6.8438 45.82 34.215 67.445 35.516 68.473 7.2812 5.582 9.7891 15.508 6 23.855-3.8086 8.3281-12.746 13.043-21.766 11.207l-25.652-5.1094-22.434 28.039c-3.7305 4.6797-9.4141 7.4023-15.414 7.4023-5.9766 0-11.66-2.7227-15.391-7.4023l-22.453-28.039-25.633 5.1094c-9.1172 1.8359-18.137-2.8984-21.906-11.305-3.7461-8.4453-1.1445-18.352 6.2578-23.855 1.2031-0.94922 28.551-22.555 35.398-68.375-45.82 6.8672-67.426 34.215-68.453 35.539-5.6016 7.2617-15.527 9.7852-23.855 5.9766-8.3477-3.7852-13.023-12.766-11.227-21.762l5.1289-25.633-28.039-22.438c-4.6758-3.75-7.418-9.4102-7.418-15.41s2.7422-11.664 7.418-15.41l28.039-22.438-5.1289-25.633c-1.8164-9.0586 2.8789-18.152 11.324-21.902 8.4258-3.75 18.332-1.1641 23.859 6.2344 0.92578 1.2227 22.531 28.574 68.352 35.422-6.8672-45.82-34.215-67.445-35.539-68.473-7.2617-5.5859-9.7656-15.512-5.9766-23.855 3.7891-8.3281 12.727-13.043 21.766-11.211l25.633 5.1133 22.453-28.023c7.4805-9.3711 23.324-9.3711 30.805 0l22.434 28.023 25.652-5.1133c9.0781-1.832 18.156 2.8828 21.902 11.309 3.75 8.4453 1.1445 18.352-6.2539 23.855-1.2031 0.94922-28.555 22.555-35.398 68.375 45.797-6.8672 67.426-34.219 68.449-35.539 5.6055-7.2617 15.512-9.7695 23.859-5.9805 8.3438 3.7891 13.023 12.77 11.227 21.766l-5.1289 25.633 28.039 22.438c4.6758 3.7461 7.3984 9.4102 7.3984 15.41s-2.7227 11.66-7.3984 15.41zm-142.16-274.64c-130.55 0-236.79 106.22-236.79 236.79 0 130.57 106.24 236.79 236.79 236.79 130.57 0 236.79-106.22 236.79-236.79 0-130.57-106.22-236.79-236.79-236.79z" fill-rule="evenodd"/>
 </g>
</svg>
